<?xml version="1.0" standalone="no"?><!DOCTYPE svg PUBLIC "-//W3C//DTD SVG 1.1//EN" "http://www.w3.org/Graphics/SVG/1.1/DTD/svg11.dtd"><svg t="1539587649809" class="icon" style="" viewBox="0 0 1024 1024" version="1.1" xmlns="http://www.w3.org/2000/svg" p-id="1039" xmlns:xlink="http://www.w3.org/1999/xlink" width="23" height="23"><defs><style type="text/css"></style></defs><path d="M511.345778 5.688889c-70.229333 0-136.135111 28.074667-185.628445 79.132444a270.08 270.08 0 0 0-76.174222 189.240889c0 71.452444 27.022222 138.638222 76.174222 189.269334a262.826667 262.826667 0 0 0 44.657778 36.977777l9.756445 6.456889-11.093334 3.697778c-63.829333 21.447111-121.941333 54.840889-170.609778 102.4C108.629333 700.529778 62.862222 825.400889 62.577778 984.206222a29.952 29.952 0 0 0 30.151111 29.724445c16.753778 0 30.236444-13.255111 30.293333-29.610667 0.341333-183.182222 65.223111-313.144889 192.881778-385.422222 42.382222-23.950222 88.120889-39.424 134.257778-48.128 27.904-5.290667 50.488889-7.168 63.146666-7.168 3.128889 0 6.001778-0.426667 10.126223-1.479111 65.763556-3.043556 126.947556-30.805333 173.511111-78.791111a270.222222 270.222222 0 0 0 76.174222-189.297778c0-71.395556-27.022222-138.609778-76.174222-189.240889C647.452444 33.763556 581.546667 5.688889 511.345778 5.688889z m0 477.411555c-111.104 0-201.386667-93.809778-201.386667-209.038222 0-115.2 90.282667-209.009778 201.386667-209.009778 111.075556 0 201.358222 93.809778 201.358222 209.009778s-90.282667 209.038222-201.386667 209.038222z m250.168889 108.088889a29.383111 29.383111 0 0 0 10.723555 40.590223c13.852444 7.964444 38.4 31.601778 61.326222 68.778666 41.443556 67.185778 67.413333 161.848889 67.413334 288.085334 0 16.355556 13.511111 29.667556 30.236444 29.667555 16.696889 0 30.208-13.312 30.208-29.667555 0-137.585778-28.928-242.972444-77.340444-320.483556-29.525333-47.274667-59.790222-75.150222-81.152-87.523556a30.520889 30.520889 0 0 0-41.415111 10.552889z" fill="#707070" p-id="1040"></path></svg>