<?xml version="1.0" standalone="no"?><!DOCTYPE svg PUBLIC "-//W3C//DTD SVG 1.1//EN" "http://www.w3.org/Graphics/SVG/1.1/DTD/svg11.dtd"><svg t="1539067550260" class="icon" style="" viewBox="0 0 1024 1024" version="1.1" xmlns="http://www.w3.org/2000/svg" p-id="9587" xmlns:xlink="http://www.w3.org/1999/xlink" width="23" height="23"><defs><style type="text/css"></style></defs><path d="M511.017 49.785c73.727 0 140.501 29.9 188.842 78.239 48.337 48.338 78.236 115.113 78.236 188.84 0 73.729-29.899 140.526-78.236 188.843a267.895 267.895 0 0 1-39.611 32.656c56.418 21.341 107.074 54.393 149 96.197 76.443 76.275 123.739 181.555 123.739 297.73 0 20.068-16.286 36.353-36.377 36.353-20.063 0-36.349-16.285-36.349-36.353 0-96.256-39.048-183.35-102.169-246.302-63.1-62.934-150.297-101.918-246.638-102.041h-0.875c-96.384 0.123-183.58 39.107-246.66 102.04-63.122 62.954-102.168 150.047-102.168 246.303 0 20.068-16.286 36.353-36.373 36.353-20.066 0-36.352-16.285-36.352-36.353 0-116.175 47.294-221.455 123.758-297.73 41.885-41.804 92.54-74.854 148.96-96.197a268.619 268.619 0 0 1-39.59-32.656c-48.318-48.317-78.217-115.114-78.217-188.842 0-73.728 29.9-140.503 78.217-188.841 48.338-48.338 115.114-78.24 188.863-78.24zM648.43 179.452c-35.162-35.162-83.752-56.94-137.412-56.94-53.662 0-102.272 21.778-137.434 56.94s-56.942 83.752-56.942 137.413c0 53.662 21.78 102.25 56.942 137.435 35.055 35.057 83.5 56.793 136.995 56.92h0.855c53.494-0.127 101.935-21.863 136.995-56.92 35.162-35.183 56.94-83.773 56.94-137.435 0-53.661-21.777-102.251-56.94-137.413z" p-id="9588"></path></svg>