<?xml version="1.0" standalone="no"?><!DOCTYPE svg PUBLIC "-//W3C//DTD SVG 1.1//EN" "http://www.w3.org/Graphics/SVG/1.1/DTD/svg11.dtd"><svg t="1539586837056" class="icon" style="" viewBox="0 0 1024 1024" version="1.1" xmlns="http://www.w3.org/2000/svg" p-id="3462" xmlns:xlink="http://www.w3.org/1999/xlink" width="24" height="24"><defs><style type="text/css"></style></defs><path d="M862.684 514.98c-12.858 0-23.379 10.521-23.379 23.379v218.594c0 90.009-72.475 158.978-162.485 158.978h-94.685c-12.858 0-23.379 10.521-23.379 23.379s10.521 23.379 23.379 23.379h94.685c115.726 0 209.242-90.009 209.242-205.735V538.36c0-12.858-10.521-23.379-23.379-23.379z m151.964-22.21L614.867 92.989c-56.11-57.279-148.457-57.279-205.735 0L9.351 492.77C0 502.121 0 516.149 9.351 525.501s23.379 9.351 32.731 0L441.863 125.72a98.07 98.07 0 0 1 139.105 0l399.781 399.781c4.676 4.676 10.521 7.014 16.365 7.014s11.69-2.338 16.365-7.014c10.521-9.351 10.521-23.379 1.169-32.731zM558.757 872.679c0 12.858 10.521 23.379 23.379 23.379s23.379-10.521 23.379-23.379v-167.16H418.482V915.93h-71.306c-90.009 0-162.485-68.968-162.485-158.978V538.358c0-12.858-10.521-23.379-23.379-23.379s-23.379 10.521-23.379 23.379v218.594c0 115.726 93.516 205.735 209.242 205.735h94.685c12.858 0 23.379-5.844 23.379-18.704V752.275h93.516v120.402z" fill="#707070" p-id="3463"></path></svg>